<?xml version="1.0" encoding="UTF-8"?>
<svg version="1.1" xmlns="http://www.w3.org/2000/svg" width="671" height="351">
<path d="M0 0 C221.43 0 442.86 0 671 0 C671 115.83 671 231.66 671 351 C449.57 351 228.14 351 0 351 C0 235.17 0 119.34 0 0 Z " fill="#FDFDFD" transform="translate(0,0)"/>
<path d="M0 0 C40.34108983 -0.06868374 80.68217203 -0.12153774 121.02330866 -0.15319599 C125.78718634 -0.15694806 130.5510639 -0.16083103 135.31494141 -0.16479492 C136.2633338 -0.16558185 137.21172619 -0.16636878 138.18885775 -0.16717956 C153.54012034 -0.1802294 168.8913492 -0.20388093 184.24259178 -0.23145839 C199.99727085 -0.2595243 215.75193226 -0.27617877 231.50663531 -0.28226548 C241.22619363 -0.28637946 250.94565657 -0.29936785 260.66518553 -0.3237494 C267.33246087 -0.33962122 273.99968698 -0.34439708 280.66697983 -0.34050413 C284.51224005 -0.33858484 288.35733372 -0.34150338 292.20256424 -0.35761642 C296.37679951 -0.37497987 300.55068178 -0.36894936 304.72494507 -0.36076355 C305.93313821 -0.36950207 307.14133136 -0.3782406 308.38613641 -0.38724393 C320.97708588 -0.32054869 331.14300713 3.07805162 340.75 11.375 C341.86375 12.674375 341.86375 12.674375 343 14 C343.49113281 14.56203125 343.98226563 15.1240625 344.48828125 15.703125 C354.27592402 27.65230674 353.57657911 40.66688895 353.51757812 55.33935547 C353.52300418 57.60557504 353.53012955 59.87179108 353.53881836 62.13800049 C353.55699897 68.27034637 353.55000522 74.402422 353.53730202 80.5347724 C353.52714465 86.96688384 353.53657552 93.39897281 353.54284668 99.83108521 C353.55058125 111.32415176 353.53818132 122.81708072 353.51780933 134.31012572 C353.49994892 144.70762495 353.50303795 155.10494543 353.52148438 165.50244141 C353.5429452 177.604526 353.55082884 189.70647046 353.53903532 201.80857766 C353.53281717 208.20451973 353.53191832 214.60033899 353.54518127 220.99627304 C353.55678682 227.01286999 353.54862804 233.0291315 353.52560425 239.04569244 C353.52034179 241.24621399 353.52178838 243.44676405 353.53065491 245.64727402 C353.58998478 261.87555478 352.99230544 276.57234515 341.1171875 288.96484375 C330.12796869 299.15680551 317.17591791 301.46634229 302.56672668 301.36076355 C300.59864887 301.36460846 300.59864887 301.36460846 298.59081191 301.36853105 C294.97846113 301.3751904 291.36638081 301.36330684 287.75406444 301.34819686 C283.84760973 301.33517443 279.94116881 301.33963033 276.03469849 301.34190369 C269.27625258 301.34347252 262.51789394 301.33410427 255.75946999 301.31719017 C245.98808139 301.29275161 236.21673475 301.28498994 226.4453189 301.2812262 C210.58974275 301.27466931 194.73421305 301.25472891 178.87866211 301.22631836 C163.48152905 301.19875801 148.08440863 301.17753411 132.68725586 301.16479492 C131.73729423 301.16400675 130.7873326 301.16321858 129.80858425 301.16240653 C125.04264258 301.15849126 120.27670082 301.15470017 115.510759 301.15097082 C76.00714015 301.11989869 36.50357315 301.06708372 -3 301 C-2.05581039 299.88525845 -1.10971889 298.77212764 -0.1628418 297.65966797 C0.62712944 296.72959427 0.62712944 296.72959427 1.43305969 295.7807312 C6.7348889 289.75552868 13.14114055 284.64848966 19.375 279.625 C24.1706049 275.75845816 28.66878667 271.65148017 33.16137695 267.4440918 C37.37411123 263.52107276 41.76404453 259.88096281 46.25390625 256.27734375 C49.26319336 253.78173296 52.13933755 251.16229869 55 248.5 C59.65143498 244.17276958 64.45805746 240.10950757 69.40625 236.12109375 C73.38161401 232.87015602 77.18229612 229.43308446 81 226 C85.30876029 222.1841911 89.66645699 218.42736788 94.04296875 214.68969727 C94.94982422 213.91517212 94.94982422 213.91517212 95.875 213.125 C96.4834375 212.60542725 97.091875 212.08585449 97.71875 211.55053711 C101.25604759 208.5212053 104.743841 205.44859137 108.1875 202.3125 C111.52227114 199.28287132 114.93287639 196.39391908 118.4375 193.5625 C123.211403 189.70174863 127.73388428 185.62562925 132.25 181.46875 C135.81184229 178.27118704 139.52565833 175.28611657 143.25 172.28125 C147.02275353 169.15157946 150.60152498 165.82716748 154.20703125 162.5078125 C158.66747845 158.5027676 163.32100284 154.74681784 168 151 C167.70712656 147.70373812 167.29972495 146.29803794 164.91796875 143.9296875 C163.56638672 142.91261719 163.56638672 142.91261719 162.1875 141.875 C157.94418384 138.57037345 153.92425021 135.17622068 150 131.5 C145.37263134 127.19157992 140.58517638 123.15586154 135.66015625 119.1875 C131.30610989 115.60708008 127.17010986 111.79100897 123 108 C118.84700597 104.29733062 114.62677234 100.68095252 110.36791992 97.10058594 C105.62051763 93.10843652 100.94149045 89.07564859 96.375 84.875 C91.94592618 80.80590896 87.36274755 76.99135228 82.68359375 73.21484375 C79.19449084 70.33519113 75.87003079 67.29306124 72.52734375 64.24609375 C69.93037607 61.93812402 67.26595987 59.74444137 64.5625 57.5625 C59.72838137 53.65014127 55.1229301 49.53732721 50.54296875 45.33203125 C45.59313622 40.79278391 40.51018104 36.42483032 35.37011719 32.1027832 C34.81485352 31.63573975 34.25958984 31.16869629 33.6875 30.6875 C33.12836914 30.21723389 32.56923828 29.74696777 31.99316406 29.26245117 C28.38051925 26.20900542 24.8569698 23.07801371 21.375 19.875 C15.23001656 14.23311462 8.83406867 8.89944805 2.1796875 3.8671875 C1.46039063 3.25101563 0.74109375 2.63484375 0 2 C0 1.34 0 0.68 0 0 Z " fill="#303030" transform="translate(283,19)"/>
<path d="M0 0 C75.57 0 151.14 0 229 0 C225.85010538 4.72484193 224.36672405 6.8333914 220.1875 10.0625 C215.50751981 13.7726982 210.944246 17.58091779 206.4375 21.5 C205.79417725 22.05856689 205.15085449 22.61713379 204.48803711 23.19262695 C200.87338311 26.34063599 197.29637727 29.52499555 193.75 32.75 C190.43560714 35.75760608 187.04340917 38.62429696 183.5625 41.4375 C178.788597 45.29825137 174.26611572 49.37437075 169.75 53.53125 C166.18815771 56.72881296 162.47434167 59.71388343 158.75 62.71875 C154.96094593 65.86194258 151.36730648 69.20158595 147.74609375 72.53515625 C145.08124834 74.92707297 142.35168175 77.19254884 139.5625 79.4375 C135.56774676 82.6594418 131.7545686 86.00666084 128 89.5 C123.33733416 93.83615074 118.53423302 97.93729883 113.5703125 101.9296875 C110.9150129 103.94316458 110.9150129 103.94316458 108.75195312 106.59228516 C103.65829326 110.79939305 96.64413412 109.67243701 90.3984375 109.59375 C88.95602519 109.592036 87.51360976 109.59210751 86.07119751 109.59387207 C83.04992792 109.59222145 80.02940257 109.57358568 77.00830078 109.54199219 C73.16882687 109.5025289 69.33033585 109.49792373 65.49069786 109.50545502 C62.51001259 109.50855325 59.52954096 109.49630065 56.54890823 109.47932434 C55.13538585 109.47237374 53.72183924 109.46915997 52.30830002 109.47001648 C37.28689834 109.45619587 24.34058539 107.05114431 12.6796875 97 C0.15935617 84.05121627 -2.52922208 66.45831813 -2.33618164 49.17651367 C-2.31307252 46.99162929 -2.31558527 44.80801881 -2.32226562 42.62304688 C-2.25344063 28.30119061 -1.02682281 14.37551928 0 0 Z " fill="#303030" transform="translate(40,211)"/>
<path d="M0 0 C0.66827631 -0.00282738 1.33655262 -0.00565475 2.02507973 -0.00856781 C5.55277512 -0.02345074 9.08043068 -0.03275231 12.6081543 -0.03710938 C16.23615329 -0.04261855 19.86378167 -0.06672847 23.49166393 -0.09508133 C26.29959687 -0.11374115 29.10744037 -0.11891479 31.91543007 -0.12044525 C33.89957152 -0.12491457 35.88366498 -0.14352692 37.86772156 -0.16241455 C39.07950577 -0.15941345 40.29128998 -0.15641235 41.53979492 -0.15332031 C42.60074875 -0.15696594 43.66170258 -0.16061157 44.75480652 -0.16436768 C50.48943665 0.53467942 54.39926626 3.47056147 58.51953125 7.328125 C59.38191406 8.12476563 60.24429688 8.92140625 61.1328125 9.7421875 C62.00292969 10.55429687 62.87304688 11.36640625 63.76953125 12.203125 C68.78840935 16.80310461 73.84372191 21.30401474 79.14453125 25.578125 C83.15777768 28.8226369 86.99384563 32.19043458 90.76953125 35.703125 C95.43684758 40.04449877 100.25503622 44.13040284 105.22265625 48.12890625 C108.2607777 50.60320455 111.19577914 53.17834292 114.11328125 55.79296875 C115.92542748 57.39158726 115.92542748 57.39158726 118.76953125 59.203125 C118.76953125 59.863125 118.76953125 60.523125 118.76953125 61.203125 C119.34574219 61.4609375 119.92195312 61.71875 120.515625 61.984375 C122.9634691 63.3079926 124.77590852 64.8332022 126.83203125 66.703125 C129.10385132 68.76128061 131.20660382 70.49450671 133.76953125 72.203125 C133.76953125 72.863125 133.76953125 73.523125 133.76953125 74.203125 C134.34574219 74.4609375 134.92195312 74.71875 135.515625 74.984375 C137.9634691 76.3079926 139.77590852 77.8332022 141.83203125 79.703125 C144.10385132 81.76128061 146.20660382 83.49450671 148.76953125 85.203125 C148.76953125 85.863125 148.76953125 86.523125 148.76953125 87.203125 C149.34703125 87.47125 149.92453125 87.739375 150.51953125 88.015625 C152.82503168 89.23241689 154.79009317 90.50646379 156.76953125 92.203125 C156.76953125 92.863125 156.76953125 93.523125 156.76953125 94.203125 C157.3109375 94.4403125 157.85234375 94.6775 158.41015625 94.921875 C161.40203262 96.54660257 163.88112524 98.5533127 166.51953125 100.703125 C167.504375 101.4971875 168.48921875 102.29125 169.50390625 103.109375 C170.62539063 104.14578125 170.62539063 104.14578125 171.76953125 105.203125 C171.76953125 105.863125 171.76953125 106.523125 171.76953125 107.203125 C96.19953125 107.203125 20.62953125 107.203125 -57.23046875 107.203125 C-57.23046875 25.45041999 -57.23046875 25.45041999 -45.91796875 13.390625 C-32.62176043 1.20958254 -17.28096466 0.05689206 0 0 Z " fill="#313131" transform="translate(97.23046875,17.796875)"/>
<path d="M0 0 C10.20241877 6.65441344 18.03207012 16.16621822 20.84301758 28.1640625 C22.90262795 39.99516989 23.02861083 54.21426673 16.2421875 64.45703125 C13.48148002 68.07324315 10.50052257 71.28675929 7.2421875 74.45703125 C6.283125 75.44703125 6.283125 75.44703125 5.3046875 76.45703125 C-3.80929522 85.26721455 -15.53953283 87.90416791 -27.85546875 87.80078125 C-38.06063371 86.90182778 -47.84097989 82.98720886 -55.7578125 76.45703125 C-56.38042969 75.94527344 -57.00304687 75.43351562 -57.64453125 74.90625 C-66.78476696 66.59874726 -70.96699558 55.07791194 -72.07421875 43.0078125 C-72.58394694 28.06126668 -67.17963212 17.13217588 -57.2578125 6.33203125 C-41.70783922 -8.38983695 -18.75669842 -10.49418679 0 0 Z " fill="#FCFCFC" transform="translate(556.7578125,128.54296875)"/>
</svg>
