<?xml version="1.0" encoding="UTF-8"?>
<svg version="1.1" xmlns="http://www.w3.org/2000/svg" width="2000" height="432">
<path d="M0 0 C21.15803207 -0.28088313 42.31575482 -0.49220431 63.47527599 -0.62174606 C73.30112894 -0.68350613 83.12582051 -0.76763455 92.95092773 -0.90527344 C101.51910836 -1.02524649 110.08644763 -1.10238354 118.65544492 -1.12906194 C123.18914949 -1.14464738 127.72044819 -1.18100948 132.25337791 -1.26876068 C136.52972557 -1.35086584 140.80270236 -1.37521567 145.07976341 -1.35729218 C146.64028323 -1.36056542 148.20092805 -1.38406375 149.76076126 -1.4304657 C157.5306714 -1.65006155 163.43709233 -1.1564897 169.49200755 4.16236758 C171.61042889 6.21073438 173.61625964 8.33975408 175.59382975 10.52362967 C177.75198006 12.78952108 180.16980313 14.69279316 182.625 16.625 C187.54195013 20.56722434 192.17223712 24.74262504 196.78515625 29.03125 C200.36145076 32.21017846 202.42480906 32.12603741 207.14717674 32.13028526 C208.10761854 32.13320041 208.10761854 32.13320041 209.0874632 32.13617444 C211.25367111 32.14152935 213.41981599 32.139727 215.58602905 32.13803101 C217.14662772 32.14044744 218.70722575 32.1433092 220.26782286 32.14658034 C224.57273809 32.15435779 228.87763739 32.15595405 233.18255877 32.15663147 C237.8194749 32.15846696 242.45638161 32.16607163 247.09329224 32.17311096 C255.13523619 32.18465221 263.17717803 32.19288856 271.21912766 32.19923019 C283.93366634 32.2095461 296.6481788 32.23010825 309.36270142 32.25234985 C313.71122542 32.25983026 318.05974954 32.26724394 322.4082737 32.27463722 C323.49515639 32.27648779 324.58203909 32.27833835 325.70185762 32.280245 C338.08297414 32.3011854 350.46409356 32.3200059 362.84521484 32.33789062 C363.97736973 32.33952881 365.10952461 32.34116699 366.27598722 32.34285481 C384.60681804 32.36911746 402.93765086 32.38777201 421.2684925 32.40448253 C440.08560393 32.42191334 458.90267588 32.45077169 477.71975577 32.4893719 C489.32650969 32.51275535 500.93319925 32.52676499 512.53997691 32.52869953 C520.50052566 32.53081161 528.46101049 32.54376347 536.42153053 32.56517886 C541.01232245 32.57718719 545.60298748 32.58437305 550.19379425 32.57846642 C554.40230451 32.57314877 558.61055656 32.58172212 562.8190238 32.60102279 C564.33598447 32.60557601 565.8529706 32.60515868 567.3699259 32.59907441 C584.34768371 32.53709434 598.21176867 35.76125642 610.74609375 47.6875 C619.27783172 56.44103358 625.10747198 67.45420299 625.13422108 79.90493774 C625.13867892 80.87177648 625.14313676 81.83861521 625.14772969 82.83475208 C625.14745315 84.41629345 625.14745315 84.41629345 625.14717102 86.02978516 C625.15084771 87.15602893 625.1545244 88.2822727 625.1583125 89.44264507 C625.16934472 93.22478882 625.17319243 97.00690508 625.17700195 100.7890625 C625.18273609 103.497739 625.1899012 106.20641139 625.19691467 108.91508484 C625.21665498 117.04957848 625.22674264 125.18407332 625.23564246 133.31858492 C625.24002974 137.15325787 625.24539545 140.98792945 625.25063133 144.82260132 C625.26764191 157.5770794 625.28213452 170.33155663 625.28938007 183.08604431 C625.29128984 186.39411419 625.29321019 189.70218406 625.29516602 193.01025391 C625.29564976 193.83241665 625.2961335 194.6545794 625.2966319 195.50165617 C625.3049264 208.8104103 625.33025427 222.11907438 625.36274669 235.42778921 C625.39586426 249.10455216 625.41383311 262.78126942 625.41702431 276.45807266 C625.41918517 284.13179358 625.42787133 291.80538321 625.45348549 299.47906494 C625.47525688 306.01644706 625.48321147 312.55366599 625.47351871 319.09108025 C625.46899228 322.42246691 625.47297107 325.75324603 625.49028015 329.08463097 C625.58672893 348.75418828 624.76596799 364.63830219 610.6875 379.8125 C600.0746762 389.69258986 586.5238134 394.15299904 572.20914268 394.10514545 C571.56000178 394.10439251 570.91086088 394.10363957 570.24204904 394.10286382 C568.07582545 394.0991675 565.90969863 394.0882775 563.74349976 394.07746887 C562.17105075 394.07344066 560.59860047 394.06989023 559.02614939 394.0667755 C555.61178811 394.0590898 552.19745596 394.04827834 548.78311157 394.03508186 C543.22705053 394.01372152 537.67098482 393.99947706 532.11489868 393.98648071 C526.13017147 393.97225442 520.14544647 393.95774175 514.16072536 393.94112074 C499.32074044 393.90039003 484.48081432 393.87977212 469.64077759 393.8712616 C468.03017627 393.87029266 468.03017627 393.87029266 466.38703756 393.86930416 C456.41770386 393.86341059 446.44836969 393.85876153 436.47903514 393.85458529 C429.64536537 393.85162712 422.81169633 393.84791285 415.97802734 393.84350586 C414.84298105 393.84278325 413.70793475 393.84206064 412.53849311 393.84131613 C394.15031083 393.8284113 375.76243115 393.77607581 357.37437193 393.71010736 C338.48585526 393.64333095 319.59767212 393.62223711 300.70904696 393.64257544 C289.0638838 393.65361302 277.41993644 393.62871589 265.77498122 393.55745133 C257.79044537 393.51193266 249.80665916 393.51058068 241.82206528 393.54366646 C237.21819621 393.56142544 232.61650165 393.55991212 228.01287079 393.50561714 C223.79098927 393.45624671 219.57291508 393.46302036 215.35107429 393.51293274 C213.83084445 393.52126052 212.31033398 393.50963432 210.79047303 393.47512577 C203.18780058 393.31360289 197.39855743 394.01749946 191.54966185 399.16379876 C189.42738919 401.21082902 187.41348369 403.33720224 185.42566784 405.51429518 C183.20591472 407.82752539 180.76205634 409.76005406 178.25 411.75 C174.58155505 414.6323588 174.58155505 414.6323588 171.31702518 417.94542694 C166.79576039 422.80344759 163.39066794 424.55827154 156.729599 424.96203613 C153.82216266 425.01394614 150.92241084 424.96564732 148.01538086 424.90820312 C146.40816359 424.90594344 144.80093808 424.90721925 143.19372559 424.91174316 C138.85275489 424.91402892 134.51356988 424.86715686 130.1730125 424.8111515 C125.62874572 424.76097723 121.08443329 424.75642886 116.53993225 424.74694824 C107.94438392 424.72213091 99.34965425 424.65654729 90.75446564 424.57615232 C80.96495821 424.48658344 71.1754107 424.44270971 61.3855952 424.40258884 C41.25660738 424.31907637 21.12835536 424.17845655 1 424 C1.94339187 422.87930285 2.88967572 421.76103975 3.8371582 420.64379883 C4.36380569 420.02080399 4.89045319 419.39780914 5.43305969 418.75593567 C7.48916056 416.4518397 9.75392098 414.58355627 12.1875 412.6875 C17.1932439 408.70068484 21.89955281 404.51587884 26.58984375 400.1640625 C28.65969827 398.30555455 30.76498687 396.64933642 33 395 C32.07895477 394.99413376 31.15790955 394.98826752 30.20895386 394.98222351 C21.47176005 394.92399618 12.73481376 394.85175103 3.99786186 394.76428509 C-0.49245487 394.71981267 -4.98268569 394.68050762 -9.47314453 394.65356445 C-13.81757326 394.62729813 -18.16166712 394.58673679 -22.50588608 394.53681374 C-24.15217759 394.520301 -25.79852681 394.50869075 -27.44488907 394.50238609 C-45.52307277 394.42624362 -61.12018177 392.25995644 -74.74609375 379.31640625 C-89.84730358 363.79644537 -90.32335755 345.36056255 -90.1953125 324.9140625 C-90.19236281 323.31990703 -90.19032809 321.7257496 -90.18920898 320.1315918 C-90.17882892 314.29603118 -90.15090708 308.46051234 -90.125 302.625 C-90.08375 289.54875 -90.0425 276.4725 -90 263 C-119.37 263 -148.74 263 -179 263 C-179 229.01 -179 195.02 -179 160 C-149.63 160 -120.26 160 -90 160 C-90.07892341 135.28975026 -90.07892341 135.28975026 -90.18017578 110.57958984 C-90.18920898 105.75512695 -90.18920898 105.75512695 -90.19088745 103.4828186 C-90.19391989 101.92592214 -90.20087145 100.36902979 -90.21115112 98.81216431 C-90.33529651 78.98562118 -88.83537105 62.40805532 -75 47 C-64.21270545 37.09664157 -51.32405013 32.9076281 -36.88330078 32.79467773 C-36.09238541 32.78477814 -35.30147003 32.77487854 -34.48658752 32.76467896 C-31.88952561 32.73325812 -29.29244545 32.70838386 -26.6953125 32.68359375 C-24.88784325 32.66300743 -23.08037863 32.64201052 -21.2729187 32.62062073 C-16.52848068 32.56557335 -11.78400047 32.51608801 -7.03948975 32.46777344 C-2.19295521 32.41743143 2.65351846 32.36181181 7.5 32.30664062 C16.99994794 32.19927123 26.49994885 32.09777961 36 32 C34.39565329 30.55056773 32.79052258 29.10200322 31.18505859 27.65380859 C29.84439835 26.44366592 29.84439835 26.44366592 28.47665405 25.20907593 C25.9210587 22.92958753 23.30822539 20.75247644 20.625 18.625 C13.42414617 12.79866812 6.52824834 6.57338543 0 0 Z " fill="#FEFEFE" transform="translate(198,4)"/>
<path d="M0 0 C48.20548155 -0.06868417 96.41095791 -0.12153796 144.61647876 -0.15319599 C150.3090979 -0.15694806 156.00171694 -0.16083103 161.69433594 -0.16479492 C162.82762183 -0.16558185 163.96090771 -0.16636878 165.1285356 -0.16717956 C183.47244589 -0.1802293 201.81632794 -0.20388078 220.16022149 -0.23145839 C238.98628426 -0.25952458 257.81233226 -0.27617883 276.6384151 -0.28226548 C288.25273484 -0.2863794 299.86697476 -0.29936749 311.48126993 -0.3237494 C319.44835684 -0.33962156 327.41540256 -0.344397 335.38250414 -0.34050413 C339.97735008 -0.3385849 344.57205665 -0.34150281 349.16687775 -0.35761642 C353.37914202 -0.37228012 357.59117398 -0.37291064 361.80344924 -0.36269668 C363.32182698 -0.36143543 364.84021957 -0.36518599 366.35856834 -0.37464955 C383.34466277 -0.4743058 397.20711005 2.7568238 409.74609375 14.6875 C418.27783172 23.44103358 424.10747198 34.45420299 424.13422108 46.90493774 C424.13867892 47.87177648 424.14313676 48.83861521 424.14772969 49.83475208 C424.14745315 51.41629345 424.14745315 51.41629345 424.14717102 53.02978516 C424.15084771 54.15602893 424.1545244 55.2822727 424.1583125 56.44264507 C424.16934472 60.22478882 424.17319243 64.00690508 424.17700195 67.7890625 C424.18273609 70.497739 424.1899012 73.20641139 424.19691467 75.91508484 C424.21665498 84.04957848 424.22674264 92.18407332 424.23564246 100.31858492 C424.24002974 104.15325787 424.24539545 107.98792945 424.25063133 111.82260132 C424.26764191 124.5770794 424.28213452 137.33155663 424.28938007 150.08604431 C424.29128984 153.39411419 424.29321019 156.70218406 424.29516602 160.01025391 C424.29564976 160.83241665 424.2961335 161.6545794 424.2966319 162.50165617 C424.3049264 175.8104103 424.33025427 189.11907438 424.36274669 202.42778921 C424.39586426 216.10455216 424.41383311 229.78126942 424.41702431 243.45807266 C424.41918517 251.13179358 424.42787133 258.80538321 424.45348549 266.47906494 C424.47525688 273.01644706 424.48321147 279.55366599 424.47351871 286.09108025 C424.46899228 289.42246691 424.47297107 292.75324603 424.49028015 296.08463097 C424.58672893 315.75418828 423.76596799 331.63830219 409.6875 346.8125 C399.0584496 356.70769614 385.51700885 361.12775962 371.188447 361.12304783 C370.53709971 361.12420167 369.88575243 361.12535552 369.21466735 361.12654433 C367.04108038 361.12918253 364.86756811 361.12471202 362.69398499 361.12025452 C361.11639448 361.12069079 359.53880405 361.12156673 357.96121401 361.12284368 C353.63302054 361.1250776 349.30485187 361.12108243 344.97666156 361.11606562 C340.30666599 361.11174549 335.63667181 361.11320866 330.9666748 361.1139679 C322.87786084 361.11449214 314.78905494 361.11135573 306.700243 361.10573006 C295.00519128 361.09760158 283.31014346 361.09499845 271.61508923 361.09374207 C252.64044465 361.09155367 233.66580436 361.08489933 214.69116211 361.07543945 C196.2595217 361.06625985 177.82788247 361.0591817 159.39624023 361.05493164 C158.26003398 361.05466892 157.12382773 361.05440619 155.95319099 361.05413551 C150.25315429 361.05283047 144.55311758 361.05156676 138.85308087 361.05032361 C91.56871761 361.0399576 44.28435901 361.02234504 -3 361 C0.18278243 357.112217 3.14295076 353.86431911 7.125 350.75 C11.04433809 347.61873258 14.81289554 344.40185569 18.5 341 C22.05670244 337.72581577 25.67161811 334.59357567 29.4375 331.5625 C33.97316443 327.90428985 38.2570117 324.05257035 42.51928711 320.08618164 C46.60661006 316.30509442 50.88043244 312.80310034 55.21875 309.3125 C58.24019336 306.80028867 61.12440078 304.17597543 64 301.5 C68.61001639 297.2104224 73.37783236 293.19589103 78.28515625 289.24609375 C81.10673495 286.9116941 83.80590712 284.48009402 86.5 282 C90.05670244 278.72581577 93.67161811 275.59357567 97.4375 272.5625 C101.43223986 269.34056899 105.24554349 265.99344505 109 262.5 C113.61004336 258.21044887 118.37782956 254.19589328 123.28515625 250.24609375 C126.10673495 247.9116941 128.80590712 245.48009402 131.5 243 C135.05670244 239.72581577 138.67161811 236.59357567 142.4375 233.5625 C146.43223986 230.34056899 150.24554349 226.99344505 154 223.5 C158.61004336 219.21044887 163.37782956 215.19589328 168.28515625 211.24609375 C171.10673495 208.9116941 173.80590712 206.48009402 176.5 204 C180.93360653 199.91906672 185.51823547 196.09856619 190.20703125 192.31640625 C194.95607093 188.37769222 199.47475702 184.19263325 204 180 C202.49066744 176.2097098 200.31798482 174.41322011 197.125 171.9375 C192.92609428 168.59920551 188.91948279 165.16069724 185 161.5 C181.26742769 158.02511573 177.47621202 154.69925105 173.5 151.5 C169.52370574 148.30068278 165.73331702 144.97415055 162 141.5 C157.38998361 137.2104224 152.62216764 133.19589103 147.71484375 129.24609375 C143.93432714 126.11832821 140.35519125 122.78726117 136.74609375 119.46484375 C134.08124834 117.07292703 131.35168175 114.80745116 128.5625 112.5625 C124.02763839 108.90493736 119.74463817 105.05382973 115.48291016 101.08837891 C111.37220724 97.28601193 107.07724416 93.75729408 102.71484375 90.24609375 C98.93432714 87.11832821 95.35519125 83.78726117 91.74609375 80.46484375 C89.08124834 78.07292703 86.35168175 75.80745116 83.5625 73.5625 C79.02763839 69.90493736 74.74463817 66.05382973 70.48291016 62.08837891 C66.37220724 58.28601193 62.07724416 54.75729408 57.71484375 51.24609375 C53.93432714 48.11832821 50.35519125 44.78726117 46.74609375 41.46484375 C44.08124834 39.07292703 41.35168175 36.80745116 38.5625 34.5625 C34.56775746 31.34056683 30.75447891 27.99342389 27 24.5 C22.38056673 20.20217755 17.60478027 16.17310519 12.69140625 12.2109375 C8.33153073 8.62938518 4.04744144 4.93330535 0 1 C0 0.67 0 0.34 0 0 Z " fill="#303030" transform="translate(399,37)"/>
<path d="M0 0 C1.59545414 -0.00324651 3.19090804 -0.00661246 4.78636169 -0.01008606 C8.05623056 -0.01592491 11.3260736 -0.01794163 14.59594727 -0.01733398 C17.87888008 -0.01725206 21.16167529 -0.0243299 24.44458008 -0.0378418 C43.70048915 -0.11570117 62.76365236 0.07764165 81.93359375 2.16796875 C83.89752075 2.37909302 83.89752075 2.37909302 85.90112305 2.59448242 C113.80424417 5.93940731 146.06724518 12.97170718 165.08203125 35.546875 C175.80346099 50.72425761 177.97207308 67.26714011 175.64501953 85.41894531 C172.9466971 100.07319036 163.48388243 112.33268861 151.390625 120.6875 C146.07951496 124.20685145 140.67772116 127.3916405 134.93359375 130.16796875 C135.93777344 130.65265625 136.94195313 131.13734375 137.9765625 131.63671875 C161.89531289 143.30203505 181.23142204 157.30336905 190.65380859 183.14306641 C198.3193337 206.30461845 198.34961531 237.33093806 187.74609375 259.54296875 C174.65905417 283.85144865 150.93097053 296.5414113 125.37084961 304.2265625 C119.8827332 305.72966477 114.34571723 306.79816757 108.74609375 307.79296875 C107.57135498 308.0053418 106.39661621 308.21771484 105.1862793 308.43652344 C85.31146738 311.94792621 65.39643909 313.31213623 45.2265625 313.37109375 C43.72732024 313.37797034 42.22807809 313.38487324 40.72883606 313.39179993 C35.85958728 313.41095288 30.99037499 313.41523076 26.12109375 313.41796875 C24.86652374 313.41951525 24.86652374 313.41951525 23.58660889 313.42109299 C-16.32620653 313.46711088 -56.16728 312.07417949 -96.03759766 310.34112549 C-99.74871907 310.18035015 -103.46022099 310.03033048 -107.171875 309.88232422 C-109.17839313 309.79933992 -111.18490427 309.71618631 -113.19140625 309.6328125 C-114.0620874 309.59950333 -114.93276855 309.56619415 -115.82983398 309.53187561 C-119.42450958 309.3764721 -122.55759593 309.04517133 -126.06640625 308.16796875 C-126.06640625 207.84796875 -126.06640625 107.52796875 -126.06640625 4.16796875 C-24.95728119 0.01279923 -24.95728119 0.01279923 0 0 Z M-6.06640625 95.16796875 C-6.15952514 96.67215614 -6.18386653 98.18068231 -6.17993164 99.68774414 C-6.17985611 100.6486647 -6.17978058 101.60958527 -6.17970276 102.59962463 C-6.17454147 103.64440475 -6.16938019 104.68918488 -6.1640625 105.765625 C-6.16264755 106.82962021 -6.1612326 107.89361542 -6.15977478 108.98985291 C-6.15415689 112.40341958 -6.14160136 115.81692175 -6.12890625 119.23046875 C-6.12389356 121.53841051 -6.11933025 123.8463533 -6.11523438 126.15429688 C-6.10418165 131.82554301 -6.08742612 137.49675128 -6.06640625 143.16796875 C3.38239638 139.72646581 12.67802587 136.16363914 21.74609375 131.79296875 C22.7302124 131.32036621 23.71433105 130.84776367 24.72827148 130.36083984 C31.74341624 126.9176453 37.93149771 123.20461135 43.93359375 118.16796875 C44.80757812 117.53181641 44.80757812 117.53181641 45.69921875 116.8828125 C52.07402601 112.13390305 56.54288478 104.95593899 57.93359375 97.16796875 C58.33752001 92.92307092 58.43815202 89.40133341 56.80859375 85.41796875 C51.83198108 79.44603355 47.12306862 76.61684106 39.43359375 75.79296875 C25.53250624 76.26686946 3.9027948 85.1987677 -6.06640625 95.16796875 Z M8.72558594 189.73120117 C5.93359375 191.16796875 5.93359375 191.16796875 2.61816406 192.25512695 C-1.28992642 193.78970689 -3.36940736 194.91653064 -6.06640625 198.16796875 C-8.10637748 205.71024017 -7.18422352 213.89229429 -6.81640625 221.60546875 C-6.75618204 223.7895679 -6.70143457 225.97382538 -6.65234375 228.15820312 C-6.52040564 233.49825601 -6.31995937 238.8323813 -6.06640625 244.16796875 C-1.38716079 243.55819482 2.58794722 242.27544605 6.95703125 240.5078125 C7.61615509 240.24223541 8.27527893 239.97665833 8.95437622 239.70303345 C11.07563472 238.84477721 13.19244261 237.97623538 15.30859375 237.10546875 C16.02813232 236.81106903 16.7476709 236.51666931 17.48901367 236.21334839 C45.49103672 225.32468478 45.49103672 225.32468478 65.93359375 204.16796875 C68.69298789 197.33518327 69.0459713 189.76683731 66.87109375 182.73046875 C63.5874337 178.38756353 59.26204521 176.25811083 53.93359375 175.16796875 C38.25161297 173.04056826 21.92783367 182.31504809 8.72558594 189.73120117 Z " fill="#2F2F2F" transform="translate(1782.06640625,60.83203125)"/>
<path d="M0 0 C8.44403666 6.32088783 13.68115567 14.2864943 18.4375 23.5625 C19.56823136 25.70812929 20.7010836 27.85264208 21.8359375 29.99609375 C22.39764648 31.0619873 22.95935547 32.12788086 23.53808594 33.22607422 C25.95383139 37.7464789 28.49738947 42.18814551 31.0625 46.625 C35.63591186 54.56421182 40.12112168 62.54867158 44.5625 70.5625 C49.44059211 79.36420731 54.32997717 88.15915075 59.25 96.9375 C60.11020752 98.47229004 60.11020752 98.47229004 60.98779297 100.03808594 C62.14294636 102.09870012 63.2982195 104.15924716 64.45361328 106.21972656 C67.3668914 111.41620745 70.27702827 116.61444696 73.1875 121.8125 C74.3541518 123.89584166 75.52081846 125.97917499 76.6875 128.0625 C97.6875 165.5625 118.6875 203.0625 139.6875 240.5625 C140.26532227 241.59431396 140.84314453 242.62612793 141.43847656 243.68920898 C142.60192769 245.76682349 143.76533933 247.84446011 144.92871094 249.92211914 C148.49913077 256.29836889 152.07112835 262.67373188 155.64404297 269.04858398 C157.39686538 272.17746505 159.14784425 275.30737131 160.8984375 278.4375 C163.02143532 282.23327583 165.15189035 286.02468879 167.2890625 289.8125 C168.21362319 291.45828754 169.13810743 293.10411803 170.0625 294.75 C170.48563477 295.49564209 170.90876953 296.24128418 171.34472656 297.00952148 C174.1875 302.08598903 174.1875 302.08598903 174.1875 304.3125 C123.0375 304.3125 71.8875 304.3125 19.1875 304.3125 C15.2275 294.7425 11.2675 285.1725 7.1875 275.3125 C-19.5425 275.3125 -46.2725 275.3125 -73.8125 275.3125 C-77.1125 284.8825 -80.4125 294.4525 -83.8125 304.3125 C-128.3625 304.3125 -172.9125 304.3125 -218.8125 304.3125 C-218.05870974 300.54354872 -217.6559872 298.63084344 -215.94921875 295.4765625 C-215.37010742 294.3927832 -215.37010742 294.3927832 -214.77929688 293.28710938 C-214.35712891 292.51173828 -213.93496094 291.73636719 -213.5 290.9375 C-212.58662957 289.2320974 -211.67389703 287.52635305 -210.76171875 285.8203125 C-210.28009277 284.92344727 -209.7984668 284.02658203 -209.30224609 283.10253906 C-206.76905403 278.35830456 -204.29349818 273.58417322 -201.8125 268.8125 C-197.7576468 261.03012006 -193.68458388 253.25769559 -189.59057617 245.49584961 C-187.39913345 241.33778306 -185.21790861 237.17470368 -183.05078125 233.00390625 C-177.6696796 222.64933459 -172.22327637 212.33530052 -166.6875 202.0625 C-160.02403447 189.68501297 -153.57484919 177.20314435 -147.16479492 164.69287109 C-146.41197225 163.22361968 -145.65912447 161.75438113 -144.90625 160.28515625 C-144.5445723 159.57929382 -144.18289459 158.8734314 -143.81025696 158.1461792 C-140.70428727 152.08992191 -137.54964625 146.06042684 -134.3659668 140.04467773 C-130.98298895 133.6504059 -127.64563924 127.23287542 -124.3125 120.8125 C-120.08257149 112.66688027 -115.83306527 104.53226869 -111.55078125 96.4140625 C-108.28671845 90.22287241 -105.04700225 84.01917833 -101.8125 77.8125 C-97.7621468 70.04070412 -93.69685935 62.27714115 -89.60595703 54.52661133 C-87.32267532 50.19657948 -85.05567989 45.85863516 -82.8046875 41.51171875 C-79.82933989 35.76694448 -76.83075783 30.03483951 -73.8125 24.3125 C-73.42288086 23.56967773 -73.03326172 22.82685547 -72.63183594 22.06152344 C-65.3419461 8.26823233 -57.04870653 -0.36719678 -41.89916992 -5.31201172 C-28.01474641 -9.14797937 -12.31555014 -7.51918793 0 0 Z M-33.8125 134.3125 C-34.18834229 135.29492676 -34.56418457 136.27735352 -34.95141602 137.28955078 C-36.75682224 142.00647616 -38.5654954 146.72214552 -40.375 151.4375 C-40.70597687 152.30031586 -41.03695374 153.16313171 -41.37796021 154.05209351 C-45.25441749 164.15116523 -49.16142271 174.23697354 -53.1484375 184.29296875 C-53.49504929 185.16751709 -53.84166107 186.04206543 -54.19877625 186.94311523 C-55.87318356 191.16432761 -57.55285162 195.38337228 -59.23852539 199.60009766 C-59.84527428 201.12530188 -60.45196685 202.65052851 -61.05859375 204.17578125 C-61.33911591 204.87293747 -61.61963806 205.57009369 -61.90866089 206.28837585 C-63.33510641 209.69507785 -63.33510641 209.69507785 -63.8125 213.3125 C-44.3425 213.3125 -24.8725 213.3125 -4.8125 213.3125 C-5.51124515 209.12002908 -6.15468698 205.96276661 -7.55908203 202.08349609 C-7.91680695 201.08740326 -8.27453186 200.09131042 -8.64309692 199.06503296 C-9.03157806 197.99943146 -9.4200592 196.93382996 -9.8203125 195.8359375 C-10.42587479 194.15523666 -10.42587479 194.15523666 -11.04367065 192.44058228 C-12.3368079 188.85446453 -13.63689575 185.27091557 -14.9375 181.6875 C-16.62927756 177.00841637 -18.31842021 172.32838275 -20.0078125 167.6484375 C-20.41759338 166.51500916 -20.82737427 165.38158081 -21.24957275 164.21380615 C-24.84015609 154.27077665 -28.34717135 144.29979153 -31.8125 134.3125 C-32.4725 134.3125 -33.1325 134.3125 -33.8125 134.3125 Z " fill="#2F2F2F" transform="translate(1148.8125,65.6875)"/>
<path d="M0 0 C39.27 0 78.54 0 119 0 C119 100.65 119 201.3 119 305 C79.73 305 40.46 305 0 305 C0 204.35 0 103.7 0 0 Z " fill="#303030" transform="translate(1334,65)"/>
<path d="M0 0 C91.08 0 182.16 0 276 0 C272.49170402 4.20995518 270.00970176 7.01629296 265.875 10.25 C261.95566191 13.38126742 258.18710446 16.59814431 254.5 20 C250.05272888 24.09351091 245.45282537 27.92442499 240.75 31.71875 C236.96094593 34.86194258 233.36730648 38.20158595 229.74609375 41.53515625 C227.08124834 43.92707297 224.35168175 46.19254884 221.5625 48.4375 C217.56776014 51.65943101 213.75445651 55.00655495 210 58.5 C205.38995664 62.78955113 200.62217044 66.80410672 195.71484375 70.75390625 C192.89326505 73.0883059 190.19409288 75.51990598 187.5 78 C183.05272888 82.09351091 178.45282537 85.92442499 173.75 89.71875 C170.91900422 92.06718968 168.20616402 94.50909902 165.5 97 C161.05272888 101.09351091 156.45282537 104.92442499 151.75 108.71875 C147.97582598 111.84959891 144.39572209 115.17526453 140.7890625 118.49609375 C137.0032813 121.89481329 133.07864278 125.0924253 129.1171875 128.28515625 C127.13793226 129.82726076 127.13793226 129.82726076 126 131 C123.60969316 131.1109679 121.24801003 131.15738426 118.85668945 131.16113281 C118.10849945 131.16609772 117.36030945 131.17106262 116.58944702 131.17617798 C114.09738253 131.19085694 111.60538201 131.19761665 109.11328125 131.203125 C107.37704975 131.20887874 105.64081827 131.21463644 103.90458679 131.22039795 C100.25010889 131.23092892 96.59565307 131.23675554 92.94116211 131.24023438 C88.29364058 131.24567549 83.64641855 131.26959918 78.99899006 131.29820633 C75.40322577 131.31699634 71.80753062 131.32204727 68.21172142 131.32357025 C66.50117572 131.32656863 64.7906304 131.33450007 63.08013344 131.34775543 C44.7820239 131.47924544 29.06074496 129.43182267 15.25390625 116.31640625 C-13.01337859 87.26527989 0 32.39435546 0 0 Z " fill="#303030" transform="translate(108,267)"/>
<path d="M0 0 C0.79768799 -0.01942154 1.59537598 -0.03884308 2.41723633 -0.05885315 C9.7619492 -0.22735843 17.10801419 -0.32434982 24.454216 -0.39992237 C29.37583501 -0.4512427 34.29463709 -0.52561328 39.21484375 -0.65625 C43.99426484 -0.78260295 48.77115057 -0.84841085 53.55213928 -0.87351036 C55.36070807 -0.89297809 57.16919104 -0.9330728 58.97679138 -0.99537086 C69.08362542 -1.3274397 76.04659717 -0.80765009 83.79321289 6.15698242 C85.40469889 7.70631877 86.96629891 9.28310622 88.4987812 10.91044235 C90.20608122 12.69753001 92.05166654 14.28388781 93.95117188 15.86254883 C95.05698993 16.8217817 96.16246778 17.78140695 97.26757812 18.74145508 C98.52668323 19.83391392 99.7857981 20.9263615 101.04492188 22.01879883 C101.66995605 22.56133301 102.29499023 23.10386719 102.93896484 23.6628418 C106.06793107 26.37816725 109.19910968 29.09093888 112.33007812 31.80395508 C113.58008887 32.88727602 114.83008886 33.97060935 116.08007812 35.05395508 C117.00820313 35.85833008 117.00820313 35.85833008 117.95507812 36.67895508 C183.58007812 93.55395508 183.58007812 93.55395508 185.45581055 95.1796875 C186.70324021 96.26072822 187.95079839 97.34162066 189.19848633 98.42236328 C192.36389384 101.16455924 195.52688249 103.90946204 198.68554688 106.65942383 C199.96272314 107.77029351 201.2400652 108.88097259 202.51757812 109.99145508 C203.44098999 110.79437988 203.44098999 110.79437988 204.38305664 111.61352539 C209.42952517 115.98753372 214.56056752 120.25112691 219.73242188 124.47583008 C220.42464844 125.07911133 221.116875 125.68239258 221.83007812 126.30395508 C221.83007812 126.63395508 221.83007812 126.96395508 221.83007812 127.30395508 C131.08007812 127.30395508 40.33007812 127.30395508 -53.16992188 127.30395508 C-53.16992188 31.0090242 -53.16992188 31.0090242 -38.16992188 14.30395508 C-27.34415916 4.36528065 -14.46437557 0.29746334 0 0 Z " fill="#303030" transform="translate(161.169921875,36.696044921875)"/>
<path d="M0 0 C48.18 0 96.36 0 146 0 C146 27.39 146 54.78 146 83 C97.82 83 49.64 83 0 83 C0 55.61 0 28.22 0 0 Z " fill="#2F2F2F" transform="translate(1482,196)"/>
<path d="M0 0 C0.9384375 0.40089844 1.876875 0.80179688 2.84375 1.21484375 C15.61470031 7.4030149 24.36287862 18.24739452 30 31 C35.00823438 46.21081995 34.38310123 62.20299092 27.71484375 76.81640625 C19.6993771 91.08349034 7.46119701 100.88851137 -8 106 C-23.93751791 109.46084414 -39.48261657 106.81162866 -53.51171875 98.609375 C-64.97218081 91.19695684 -74.54424458 78.72550681 -77.63232422 65.24414062 C-79.79641298 52.03543951 -79.66938381 37.84361609 -73 26 C-72.45730469 25.01902344 -71.91460938 24.03804687 -71.35546875 23.02734375 C-63.69977056 10.18719984 -52.04038704 0.93299694 -37.55859375 -3.375 C-24.98959459 -5.58250809 -11.76673954 -5.1560301 0 0 Z " fill="#FEFEFE" transform="translate(721,166)"/>
</svg>
